<svg width="865" height="884" viewBox="0 0 865 884" fill="none" xmlns="http://www.w3.org/2000/svg">
<rect width="865" height="884" fill="white"/>
<path d="M256.667 80.0666C239.467 86.0666 229.333 100.733 229.333 119.933C229.333 125.933 228.8 127.667 226 130.067C219.067 136.067 221.067 152.733 229.2 157C231.6 158.2 233.467 160.6 234.4 164.067C235.333 166.867 238.4 172.067 241.333 175.4C246.533 181.267 246.667 181.667 246.667 191.4C246.667 205.133 245.333 206.6 224.933 214.467C203.333 222.733 191.6 229 186.4 234.733C176.4 246.2 170.667 264.733 166 299.667C164.933 308.467 162.8 325 161.333 336.333C159.867 347.667 157.467 360.867 156.133 365.667C151.733 381.133 150.667 386.467 147.867 410.6C144.267 442.733 144 443.4 134.533 452.2C128.667 457.533 125.067 462.333 121.067 470.467C118.133 476.6 116 482.467 116.4 483.533C117.333 486.067 122.933 486.333 126.933 484.2C129.467 482.867 129.6 483 128.667 485.133C128.133 486.6 126.533 491.8 125.2 496.733C122.267 507.533 123.333 512.333 128.667 512.333C130.667 512.333 132 513.133 132 514.2C132 516.733 135.6 520.333 138.133 520.333C139.2 520.333 141.2 519.133 142.667 517.667C144.933 515.4 145.733 515.267 147.867 516.6C150 517.933 150.933 517.8 153.2 515.8C154.8 514.333 156 512.467 156 511.4C156 509.267 156.267 509.267 160.4 510.867C162.667 511.8 164.4 511.667 166 510.467C169.467 507.933 176 477.4 177.333 457.667C178.267 443.667 179.2 438.333 183.733 424.333C189.6 406.333 192.133 396.067 195.333 376.333C196.533 369.4 199.867 352.6 202.667 339C205.6 325.4 208.4 311.667 208.8 308.467C210.133 300.333 211.333 304.067 213.333 321.667C216 344.067 214.4 385.133 210 407C204.8 433 203.067 445.133 201.333 467.667C198.667 500.867 203.333 547 213.6 591L219.067 614.333L219.2 648.333L219.467 682.333L226.4 715C234 751.667 236.667 768.733 235.6 777.133C235.2 781 232.4 787 226.8 796.2C219.867 807.4 218.533 810.333 218.933 814.6C219.333 819.133 219.867 819.8 224.4 821.4C227.333 822.2 237.733 823.667 247.733 824.333C262.533 825.4 266.4 825.267 268.667 823.8C270.933 822.333 272 822.2 274.8 823.667C277.467 825.133 281.867 825.267 295.6 824.2C305.2 823.533 315.333 822.333 318.133 821.4C322.933 819.8 323.333 819.267 323.733 814.333C324.133 809.667 323.067 807.267 317.2 798.333C308.533 785.133 306.667 780.6 306.667 773.533C306.667 765.533 310.133 743 315.333 717C323.733 675.4 324.4 670.333 323.867 649.667C323.2 617.4 323.467 615.133 328.4 594.333C337.6 556.067 341.733 522.333 341.6 487C341.6 466.067 338.8 434.733 336 424.467C335.333 421.8 333.2 411 331.333 400.333C328.533 384.333 328 376.867 328 356.2C328 334.2 329.333 315.533 331.6 305.667C332.267 302.2 338.667 331.133 346.667 374.333C351.2 398.6 352.667 404.867 360.267 429C365.067 444.2 365.733 448.067 366 460.333C366.267 470.867 367.2 478.2 370.4 490.333C375.867 512.067 375.467 511.4 380.933 510.733C384.8 510.2 385.867 510.733 387.067 513.267C388.667 517 392.8 518.467 395.467 516.2C397.067 514.867 397.867 515.133 400.133 517.4C401.6 519 403.6 520.333 404.667 520.333C407.067 520.333 410.667 516.733 410.667 514.2C410.667 513.133 412 512.333 414 512.333C419.733 512.333 420.8 507.533 417.467 496.467C415.867 491.267 414.267 486.067 413.733 484.867C413.067 482.867 413.333 482.867 417.067 484.867C421.333 487 424.667 486.6 425.733 483.8C426.133 483 424.533 477.8 422.267 472.333C418.933 464.333 416.133 460.333 408.533 452.733C397.733 441.8 397.733 441.667 394.667 412.333C392.667 392.733 390.933 383.267 386.667 366.333C384.533 358.2 382 343.533 380.8 333.667C374.267 278.333 371.2 262.333 364.933 249C356.8 232.067 349.867 226.733 321.867 216.2C296.533 206.733 296 206.2 296 191.933C296 181.667 296.133 181.267 301.067 175.667C303.867 172.467 306.933 167.4 308 164.333C309.067 161 311.2 158.067 313.6 156.6C321.6 151.933 323.6 136.067 316.933 130.2C314.267 127.933 313.6 125.933 313.067 117.533C312.267 104.6 308.133 95.1333 300.4 88.3333C288.933 78.2 271.467 75 256.667 80.0666ZM287.6 84.2C295.867 87.8 304.533 96.6 307.2 103.933C311.6 116.333 310.933 145.267 306 160.333C302.667 170.2 295.067 179 285.467 183.933C274.667 189.667 268.4 189.667 257.6 184.2C242.133 176.6 235.6 164.867 233.2 140.467C230.8 117.933 233.467 102.733 240.933 94.3333C252.4 81.2666 271.2 77.2666 287.6 84.2ZM231.2 149.933C231.867 153.933 231.6 154.733 230.133 154.2C225.467 152.467 223.2 137.267 226.8 132.867C228.4 130.867 228.8 131.4 229.6 137.8C230 141.8 230.8 147.267 231.2 149.933ZM317.333 141.4C317.333 147.133 314 155 311.6 155C310.933 155 310.667 153.667 311.067 151.933C311.6 150.333 312.267 144.867 312.8 139.8C313.6 131.667 314 130.867 315.6 133C316.533 134.467 317.333 138.2 317.333 141.4ZM257.2 187.8C262.133 190.467 266 191.4 271.333 191.4C276.667 191.4 280.533 190.467 285.467 187.8C289.2 185.933 292.4 184.333 292.667 184.333C292.933 184.333 293.067 188.067 292.933 192.6C292.8 197.267 293.067 202.2 293.733 203.8C294.533 206.2 294 206.733 287.867 208.067C279.2 210.067 265.6 210.067 255.733 208.067C248.8 206.6 248.133 206.2 248.933 203.667C249.333 202.2 249.6 197.267 249.6 192.6C249.467 188.067 249.6 184.333 249.867 184.333C250.133 184.333 253.467 185.933 257.2 187.8ZM260 211.267C268.133 212.733 285.067 211.933 291.6 209.667C295.067 208.467 296.4 208.6 299.067 210.333C300.933 211.533 308.267 214.733 315.6 217.533C323.467 220.467 328.533 223.133 328.267 224.2C325.333 237.933 327.2 258.2 332.933 273.933C335.733 282.067 335.867 283.267 334.267 286.6C332.133 290.6 328 306.467 328 310.067C328 312.2 323.733 312.333 272.667 312.333C242.267 312.333 216.933 312.467 216.4 312.6C215.867 312.867 214.667 309.267 213.867 304.867C212.933 300.333 210.933 293.267 209.6 289L206.933 281.4L210 273.8C214.267 263.267 216.533 248.2 215.6 236.2C215.067 230.6 214.667 225.267 214.4 224.333C214.133 223.133 219.467 220.333 228.667 216.733C236.667 213.533 243.867 210.333 244.667 209.533C245.333 208.867 247.467 208.6 249.333 209C251.067 209.533 255.867 210.467 260 211.267ZM213.2 241.8C213.333 253.667 210.133 269.667 206 277.667C204 281.4 204.133 282.333 206.133 288.733C208.267 295.533 208.267 295.933 203.467 319C198.533 342.333 194 365.533 189.333 390.2C187.467 400.067 175.6 442.6 173.867 445.4C173.467 446.067 150.133 440.067 148.933 439.133C147.067 437.4 153.333 390.6 158 371.267C160.533 360.733 163.867 342.2 165.333 330.2C169.2 298.733 172.933 274.2 175.2 265.533C180.4 246.067 189.333 233.8 203.2 227L211.333 223.133L212.133 226.733C212.667 228.733 213.067 235.533 213.2 241.8ZM343.467 229C350.933 233.4 358.4 241.933 362.267 250.733C367.333 262.2 370.133 276.6 375.333 316.333C377.867 336.467 381.733 359.933 383.867 368.333C386 376.733 388.4 388.733 389.2 395C392 415.8 394.667 438.067 394.267 438.467C393.733 438.867 368.8 445.533 368.533 445.267C366.533 442.333 353.867 394.6 351.333 380.333C349.467 369.667 346.133 352.867 344 343C334.667 299.933 334.267 296.867 336.667 289.4C338.8 282.867 338.667 282.333 336.133 276.2C330.533 263.133 327.867 242.067 330.133 228.067C330.933 223.4 331.2 223.267 334.533 224.467C336.4 225.267 340.4 227.267 343.467 229ZM325.733 322.6C325.067 326.867 324.667 342.2 324.667 356.733V383H271.333H218V356.067C218 341.133 217.467 325.8 216.933 321.933L215.867 315H271.333H326.667L325.733 322.6ZM326.133 389.667C326.533 392.2 328.133 401.4 329.733 409.933L332.8 425.667L328 427.133C318.667 430.2 303.067 438.867 292.133 447.133C271.867 462.6 271.467 462.733 263.2 456.333C246.533 443.533 237.867 437.933 226 432.2C218.667 428.6 211.867 425.667 210.8 425.667C209.867 425.667 209.333 424.867 209.733 423.8C210.133 422.733 211.733 414.733 213.333 406.067C214.933 397.4 216.4 389.133 216.667 387.667C217.2 385 218.267 385 271.333 385H325.333L326.133 389.667ZM232.533 438.067C238.267 441.133 248.4 448.067 255.067 453.267C261.733 458.6 267.733 463 268.4 463C270 463 268.8 551.4 266.533 591.667C265.067 618.867 265.2 624.6 267.067 641.933C269.867 665.667 269.867 679.667 267.333 714.333C265.067 745.933 264.933 765.267 266.8 779C268.8 793.533 270.133 812.6 269.333 817.133C268.667 820.6 268.133 821 262.933 821.4L257.333 821.8L258.133 816.2C258.933 811.8 258.667 810.733 257.2 811.267C256.133 811.667 255.067 813.933 254.667 816.467C254.133 820.2 253.333 821.133 250.4 821.4C247.2 821.8 246.8 821.4 246.267 816.733L245.867 811.667L244 815.933C241.6 821.4 237.733 821.8 237.067 816.6L236.533 813L234.933 816.733C233.6 819.8 232.933 820.2 230.8 819.133C229.067 818.067 228.4 816.733 228.933 814.733L229.6 811.667L226.933 814.867C224.267 818.2 221.333 817.667 221.333 813.8C221.333 812.6 223.467 807.933 226.267 803.533C238.4 783.8 238.667 783.133 238.667 771.4C238.667 760.467 235.2 738.733 228 705.667C222.533 680.067 221.2 665 222.133 639.267L222.933 617L217.333 593.133C204.4 537.667 200.8 483.933 207.333 441C208.4 433.667 209.333 427.533 209.333 427.4C209.333 426.733 222.667 432.867 232.533 438.067ZM336.533 452.6C341.467 495.667 336.933 548.333 324.4 595.4C320.933 608.467 320.667 610.467 320.667 642.333L320.533 675.667L314.933 702.333C307.067 740.6 304 759.8 304 771.8C304 783.133 304.4 783.933 316.533 803.667C319.2 808.067 321.2 812.867 321.067 814.333C320.533 818.2 316.533 818.467 315.333 814.733C314.4 811.8 314.4 811.8 313.467 815.533C312.4 820.6 309.733 821.4 308 817.133C306.4 812.733 304.133 812.6 305.067 817C306 822.2 301.067 821.4 298.667 815.933L296.8 811.667L296.4 816.733C295.867 821.4 295.467 821.8 292.267 821.4C289.333 821.133 288.533 820.2 288 816.6C287.2 811.267 284.667 811.533 284.667 817C284.667 820.6 284.267 821 279.733 821.4C270.933 822.2 270.933 821.267 276.133 773.667C277.333 762.733 277.333 752.333 275.867 725.667C273.467 682.467 273.467 660.2 275.867 638.067C277.467 623.267 277.467 615.933 276.133 592.733C275.2 577.4 274.133 542.067 273.733 514.2C272.933 463.8 273.067 463.267 275.733 462.467C277.2 461.933 280.4 459.8 282.933 457.533C292 449.267 306.4 439.8 319.333 433.533L332.667 427.133L333.6 430.733C334.133 432.733 335.467 442.6 336.533 452.6ZM396 443.533C396 444.467 399.867 448.867 404.667 453.533C410.533 459 414.933 464.733 418 471C423.467 481.933 423.733 483.267 419.733 482.733C417.733 482.467 414.8 479.533 411.333 474.6C408.4 470.333 405.867 467.4 405.733 467.933C405.467 468.6 407.733 476.467 410.667 485.4C416.4 502.867 417.333 509.667 414 509.667C411.2 509.667 408.933 505.267 405.333 493.267C403.6 487.667 401.733 483 401.067 483C399.2 483 399.867 486.067 404.133 499.533C408.267 512.733 408.4 516.333 404.667 516.333C402.133 516.333 399.6 510.6 395.733 496.333C393.867 489.4 392.267 485.667 391.067 485.667C389.867 485.667 389.467 486.6 389.867 487.933C392.4 496.333 396 510.6 396 511.933C396 514.867 390.667 513.8 389.333 510.6C388.667 509 386.8 502.733 385.2 496.6C383.6 490.6 381.867 485.667 381.2 485.667C379.6 485.667 379.733 487.533 382 497.533C384.133 506.333 383.333 509.4 379.6 507.933C376.4 506.733 370.4 478.733 369.733 462.333L369.067 447.667L381.6 444.2C394.4 440.733 396 440.6 396 443.533ZM161.333 444.867L172.667 447.933L173.067 459.133C173.333 467.4 172.533 474.467 170 486.333C168.133 495.133 166.267 503.667 165.867 505.267C165.467 507.267 164.267 508.333 162.4 508.333C159.733 508.333 159.733 507.8 160.4 500.6C160.933 496.467 161.733 491.667 162.133 489.933C162.667 488.2 162.4 487 161.467 487C160.667 487 159.733 487.8 159.467 488.6C159.2 489.533 157.6 495.4 155.867 501.4C152.933 512.2 150.667 515.533 147.733 512.6C146.533 511.4 148.4 502.733 152.8 487.933C153.2 486.6 152.8 485.667 151.6 485.667C150.533 485.667 148.933 488.867 147.467 493.933C141.467 515.667 141.2 516.333 138.533 516.333C137.067 516.333 135.6 515.533 135.2 514.467C134.533 512.867 139.733 494.867 143.333 485.267C144 483.8 143.6 483 142.267 483C140.933 483 139.067 486.867 136.533 495C132.933 507 130.667 510.6 128 509C125.6 507.533 126.533 502.2 132 485.4C134.933 476.467 137.2 468.6 136.933 467.8C136.667 467.133 134.133 470.067 131.2 474.467C127.867 479.533 124.933 482.467 123.067 482.733C118.933 483.4 119.2 481.667 125.333 469.8C129.067 462.6 132.933 457.533 138 453.267C141.867 449.8 145.6 445.8 146 444.333C147.067 441 147.333 441.133 161.333 444.867ZM273.467 613C273.6 626.2 273.067 639.667 272.4 643C271.2 649 271.2 648.867 269.467 635.667C267.867 623 268.133 614.733 270.8 561C271.333 551.667 273.333 591 273.467 613ZM273.2 748.467C273.333 765.133 272.933 780.733 272.4 783.133C271.467 787.533 271.467 787.533 270.533 784.333C269.333 779.8 269.067 726.067 270.267 712.867L271.333 702.333L272.133 710.333C272.667 714.733 273.067 731.933 273.2 748.467Z" fill="black"/>
<path d="M245.733 128.333C241.067 130.2 242 130.6 249.867 129.933C254 129.667 258.133 130.067 259.867 131C263.2 132.733 265.333 131.8 262.933 129.4C260.933 127.4 249.467 126.733 245.733 128.333Z" fill="black"/>
<path d="M282.4 128.6C280.267 129.267 278.667 130.467 278.667 131.267C278.667 132.067 279.6 132.2 281.067 131.533C282.267 130.867 287.067 130.333 291.733 130.333C300.667 130.333 302.533 129.133 295.867 127.8C290.4 126.733 286.8 126.867 282.4 128.6Z" fill="black"/>
<path d="M274.8 142.6C274.933 151.267 275.467 150.733 276.4 141.267C276.667 137.8 276.533 135 275.867 135C275.2 135 274.667 138.467 274.8 142.6Z" fill="black"/>
<path d="M263.867 156.733C266 158.867 275.2 159.267 277.867 157.4C280 155.667 279.333 155.533 271.467 155.533C266.267 155.533 263.067 155.933 263.867 156.733Z" fill="black"/>
<path d="M259.067 169.133C260 170.067 282.933 169.933 283.867 168.867C284.133 168.6 278.533 168.333 271.333 168.333C264.133 168.333 258.667 168.733 259.067 169.133Z" fill="black"/>
<path d="M266.667 175C267.733 175.667 269.867 176.333 271.333 176.333C272.8 176.333 274.933 175.667 276 175C277.467 174.067 276.133 173.667 271.333 173.667C266.533 173.667 265.2 174.067 266.667 175Z" fill="black"/>
<path d="M233.333 614.867C233.333 616.867 239.733 620.333 243.733 620.333C245.733 620.333 248.667 619.4 250.133 618.333C252.4 616.6 252.133 616.467 246.4 617.267C241.733 617.8 239.2 617.4 236.667 615.8C234.8 614.6 233.333 614.2 233.333 614.867Z" fill="black"/>
<path d="M305.467 615.8C303.2 617.4 300.8 617.8 296.267 617.133C290.533 616.467 290.267 616.6 292.533 618.333C294 619.4 296.533 620.333 298.267 620.333C302.133 620.333 309.333 616.733 309.333 615C309.333 613.267 309.067 613.267 305.467 615.8Z" fill="black"/>
<path d="M385.333 455.4C385.333 459.267 388.933 465.267 393.2 468.2C399.2 472.467 400.667 471.533 395.333 466.733C392.667 464.467 389.333 460.467 388 457.8C386.4 454.733 385.467 453.933 385.333 455.4Z" fill="black"/>
<path d="M154.133 458.2C153.733 459.933 150.933 463.533 147.867 466.2C141.467 472.067 141.6 473.8 148 469C152.667 465.533 157.333 459.4 157.333 456.6C157.333 453.8 154.933 454.867 154.133 458.2Z" fill="black"/>
<path d="M605.333 79.8C589.067 85.5334 579.2 99 578.4 117C578 125.133 577.467 126.867 574.133 130.067C570.667 133.533 570.4 134.467 570.933 142.333C571.333 149 572.133 151.667 574.667 154.333C576.4 156.2 578.533 157.667 579.467 157.667C580.4 157.667 581.867 160.067 582.667 162.867C583.467 165.8 586.4 171.133 589.333 174.867C594.533 181.4 594.667 181.8 594.667 192.2C594.667 200.2 594.133 203.4 592.4 205.533C591.067 207 583.467 210.733 575.6 213.667C554.8 221.4 542.533 227.533 537.067 232.867C525.733 243.8 519.733 261.267 515.2 296.333C514.133 304.733 512 321 510.533 332.333C509.067 343.667 506.533 358.333 504.667 365C500.667 380.2 499.2 388.467 496.667 411.667C493.2 442.467 493.2 442.6 483.333 452.333C474.4 461 464.667 477.667 465.6 482.6C466.133 485.533 472.667 486.6 475.6 484.067C477.6 482.6 477.733 482.733 476.8 485.667C471.333 505.267 471.067 508.2 473.6 510.733C474.533 511.667 476.533 512.333 478.267 512.333C480.4 512.333 481.333 513.133 481.333 515C481.333 516.6 482.8 518.333 484.8 519.267C487.867 520.733 488.667 520.6 490.8 517.933C492.8 515.4 493.733 515.133 496 516.333C498.667 517.8 504 516.2 504 513.933C504.133 510.867 506.4 509.4 509.067 510.867C511.2 511.933 512.4 511.8 514.533 509.933C518.533 506.6 525.333 474.867 525.333 459.533C525.333 449.533 526.133 445.267 532 426.467C535.6 414.733 539.867 398.067 541.467 389.667C543.067 381.267 547.2 359.933 550.8 342.467C554.4 325 557.333 309.133 557.333 307.533C557.333 305.8 557.867 304.333 558.533 304.333C560.933 304.333 563.333 330.867 563.333 356.333C563.2 382.467 562 393.667 555.333 425C545.333 471.667 548 530.2 562.933 595L568.267 618.333L567.467 641.133C566.4 667.267 567.067 674.467 574.667 711.8C583.867 757 586.267 781.933 581.867 788.067C580.8 789.667 576.267 793.4 571.867 796.467C562.133 803 560 806.733 563.2 811.667C565.867 815.667 567.067 816.2 588.533 822.467C606.133 827.533 612.667 827.667 617.6 822.733C620.267 820.067 620.267 820.067 623.467 823.133C628.133 827.533 637.333 827.133 654.667 821.667C671.867 816.333 675.733 814.467 677.467 810.467C679.467 806.2 677.333 802.733 669.6 797.533C656.4 788.6 656 787.933 656 775C656 764.2 660.533 731.8 664.667 714.333C671.733 683.267 672.667 675.133 672.4 645C672.133 615.933 672.133 615.533 676.533 597C682.8 570.867 686.267 549.933 688.667 523.933C692.267 484.467 690.667 455.667 682.8 415.533C676.667 384.333 675.467 370.733 676.533 345C677.067 332.467 678.267 317.8 679.2 312.333C680.8 302.333 680.933 302.333 681.867 307.667C682.533 310.6 685.333 323.8 688.133 337C690.933 350.2 694.8 369.933 696.667 380.733C698.533 391.667 703.2 410.2 706.933 422.067C712.933 441.267 713.733 445.533 714.667 460.333C715.333 471.133 716.933 482.067 719.333 491.667C724 510.6 724.533 511.533 729.867 510.6C733.467 510.067 734.4 510.467 736.267 513.8C738.667 517.8 740.667 518.467 743.867 516.467C745.2 515.667 746.933 516.067 749.333 517.933C752.4 520.067 753.6 520.333 755.867 519.133C757.333 518.2 758.667 516.467 758.667 515C758.667 513.267 759.733 512.333 762.133 512.067C769.067 511.267 769.2 507.267 763.2 485.8C762.267 482.733 762.267 482.733 765.733 485C768.4 486.733 769.733 486.867 771.867 485.667C775.6 483.667 775.467 482.2 770 470.333C766.533 462.733 763.333 458.333 756.8 451.933C746.933 442.467 746.4 440.867 744 418.333C741.733 396.6 738.933 379.8 735.333 366.2C733.6 359.667 730 337.4 727.333 316.867C720.533 264.2 717.867 253.4 708.267 239.667C700.933 229 694.933 225.533 659.067 211.667C645.733 206.467 644.667 205 644.667 192.467C644.8 182.733 645.067 181.933 649.6 175.8C652.267 172.333 655.467 166.867 656.8 163.533C658 160.333 659.733 157.667 660.667 157.667C661.467 157.667 663.6 156.2 665.333 154.333C667.867 151.667 668.667 149 669.067 142.333C669.6 134.6 669.333 133.533 666.133 130.333C663.733 127.933 662.667 125.4 662.667 122.333C662.667 116.2 660.133 104.467 657.733 99.9334C654.133 92.8667 646 85.2667 638 81.4C631.467 78.3334 628.267 77.6667 620.667 77.6667C615.6 77.8 608.667 78.7334 605.333 79.8ZM635.333 83.5334C643.067 86.8667 649.867 92.8667 654.133 100.6C658 107.533 658 107.933 658 128.333C657.867 154.867 655.333 164.6 645.467 175.4C642.4 178.733 642 180.467 641.6 191.133L641.067 203L645.6 207.4C648.667 210.467 655.067 213.8 666.667 218.333C695.733 229.533 701.067 233 707.867 245C714.133 256.067 718 271.667 721.867 301.667C727.6 345.8 729.333 357.4 731.333 364.067C734.8 375.8 737.467 390.2 740.133 412.867C743.733 443.667 744 444.733 753.6 453.533C759.333 458.867 763.067 463.933 766.933 471.533C769.733 477.267 771.867 482.2 771.467 482.6C771.067 483 769.2 483 767.333 482.467C765.067 481.933 762.667 479.267 759.867 474.333C757.6 470.333 755.333 467.267 754.667 467.667C754.133 468.067 756.267 476.467 759.467 486.6C762.8 496.6 765.2 505.8 765.067 506.867C764.8 508.067 763.467 509 762 509C759.867 509 758.533 506.6 755.067 496.333C752.8 489.4 750.133 483.533 749.467 483.267C747.467 482.6 747.6 483.533 752 497.667C756.933 513.267 757.2 516.733 753.067 516.067C750.4 515.667 749.467 513.667 745.867 501C743.6 493 740.933 486.2 740.133 485.933C738 485.267 738.267 487.667 741.333 498.333C744.8 510.333 744.8 513.667 741.333 513.667C738.8 513.667 736.267 507.4 732.267 491C731.733 488.467 730.8 486.467 730.267 486.6C728.933 487.133 728.933 487.4 730.667 497.8C731.6 503 731.867 507.533 731.467 508.067C726.933 512.6 719.2 485.133 717.333 457.667C716.267 441.667 715.467 437.533 710 421C706.667 410.733 702.4 393.933 700.533 383.667C698.8 373.4 695.467 356.333 693.2 345.667C682.267 294.467 682.667 296.867 684.533 289.533C686.4 282.6 684.933 279 682.667 284.867C676.933 300.067 673.333 325 673.333 349.933V371H620.133H567.067L566.267 344.6C565.467 318.2 563.6 305.133 557.867 287.933C555.2 279.8 552.8 281.533 555.2 289.667C557.067 296.2 557.067 297.133 549.333 332.333C547.2 342.2 543.333 361.933 540.667 376.067C538.133 390.2 533.333 410.333 530.133 420.733C522.667 444.867 521.2 451.8 522.133 459.8C522.533 463.4 522 470.467 520.933 475.667C515.067 503.933 514.133 507.267 512.4 507.933C508.267 509.533 507.467 506.067 509.6 496.333C510.8 491.133 511.2 486.6 510.667 486.333C509.067 485.4 508.533 486.6 506 496.333C502.133 511.8 501.333 513.667 498.4 513.667C495.867 513.667 495.733 513.133 496.533 507C497.067 503.4 498.267 497.933 499.333 494.867C501.733 488.2 501.867 485.267 499.733 485.933C498.933 486.2 496.4 493 494.133 501.133C490.533 513.667 489.467 515.667 486.933 516.067C482.8 516.733 483.067 511.933 488.133 496.467C490.267 489.667 491.867 483.8 491.467 483.4C490 481.8 488.267 484.867 484.667 496.333C480.8 508.467 478.533 511.4 475.733 508.6C474.667 507.533 474.933 504.733 476.533 498.733C479.333 488.867 483.867 475.4 485.6 471.8C486.4 470.2 486.4 468.867 485.6 468.067C484.667 467.133 483.6 468.067 482.133 470.733C478.8 477.133 473.333 483 470.533 483C469.2 483 468 482.733 468 482.333C468 481.933 470.4 477 473.2 471.267C476.933 463.933 480.667 458.867 486.4 453.667C496 444.867 496.267 444.2 500 411.133C501.6 397.667 504.533 379.667 506.8 371.133C508.933 362.6 511.867 346.333 513.467 335C521.867 270.733 523.333 263 530.267 248.6C537.467 233.8 544.667 228.867 574.667 217.8C586 213.533 591.067 210.867 594.4 207.533C598.4 203.267 598.667 202.6 598.667 192.733C598.667 181.933 598.533 181.4 590 169.8C588.133 167.267 585.733 162.2 584.533 158.467C581.733 149.133 580.4 117.533 582.667 108.6C586.8 91.2667 603.733 79.4 622.267 80.8667C626.8 81.2667 632.667 82.4667 635.333 83.5334ZM579.067 142.6C579.467 149.133 579.6 154.6 579.333 154.867C578.133 156.067 573.333 145.933 573.333 142.067C573.333 137.133 575.467 131 577.067 131C577.733 131 578.667 136.2 579.067 142.6ZM665.333 135C667.333 139.667 666.4 147.267 663.333 151.933C662.133 153.8 660.933 155 660.667 154.733C659.733 153.8 661.733 131 662.667 131C663.2 131 664.4 132.867 665.333 135ZM673.867 382.6C674.4 387.533 676.533 400.333 678.667 411.267C684.667 441.267 687.067 462.6 687.067 487C687.067 522.733 682.133 561.267 673.067 597C669.067 612.6 668.933 613.8 668.8 646.333L668.533 679.667L663.067 706.333C657.067 735.4 653.6 756.467 652.4 772.2C651.333 786.067 653.333 790.467 664.133 797.8C668.8 801 673.067 804.067 673.733 804.467C674.533 805 674.667 806.867 674.133 808.867C673.467 811.8 671.6 812.867 658.267 817C636.267 824.067 628.4 824.6 623.467 819.533C620.667 816.733 620.667 803.4 623.467 791.4C625.733 781.933 625.6 774.467 623.2 683.4C622.533 659.667 622.8 650.467 624.667 637.133C626.533 623 626.667 617.533 625.467 600.067C623.333 571.8 621.333 517.4 621.333 491.133C621.333 470.2 621.467 469.4 623.733 471.4C629.467 476.6 639.067 479.533 650 479.533C662.4 479.4 667.867 477.4 674.533 470.467C680.667 464.067 678.8 462.733 672.133 468.733C665.6 474.6 658.133 476.733 646.667 476.067C636 475.533 626.133 471 623.333 465.533C621.867 462.867 621.333 457.133 621.333 444.467C621.333 420.867 618.933 420.6 618.4 444.2C618 460.467 617.6 463.267 615.2 466.6C611.2 472.067 603.333 475.533 593.333 476.067C582 476.733 575.2 474.733 568.133 468.867C561.6 463.133 559.733 463.533 564.8 469.533C570.667 476.6 577.867 479.533 589.333 479.533C601.2 479.667 607.867 477.533 614.267 471.8L619.067 467.667L618.133 508.333C617.733 530.733 616.4 565.133 615.2 584.867C613.467 617.8 613.467 622.333 615.467 638.867C617.2 653 617.467 663.133 616.8 685C614.4 766.6 614.267 783.4 616.533 791.8C617.733 796.333 618.667 803.933 618.667 808.733C618.667 816.733 618.267 817.8 615.067 820.333C610 824.333 601.333 823.4 581.333 816.733C567.2 812.067 566 811.4 565.6 808.067C565.2 805 566.4 803.667 574.667 798.333C579.867 794.867 584.667 790.733 585.6 789.267C587.6 785.4 587.2 763 584.667 747.4C583.467 740.2 580.133 722.6 577.067 708.333L571.467 682.333L571.2 648.333C571.067 615.133 570.933 613.933 566.8 597.133C550.4 529.8 548.533 474.6 560.667 414.333C562.4 405.533 564.533 392.733 565.467 385.933L567.067 373.667H620H672.933L673.867 382.6ZM621.6 605.667C621.867 631.533 621.467 644.467 620.533 646.2C618 650.333 617.067 626.467 618.133 590.6C619.467 548.067 621.2 555.533 621.6 605.667ZM621.867 749.8C622 787.133 621.6 794.333 619.2 791.933C617.6 790.467 616.933 759 618 731.8C618.667 711.133 619.333 704.6 620.4 706.333C621.2 707.933 621.867 723.933 621.867 749.8Z" fill="black"/>
<path d="M588.4 620.467C581.067 622.6 582.533 623.667 592.8 623.667C603.067 623.667 605.2 622.6 599.2 620.333C595.333 618.733 594.133 618.867 588.4 620.467Z" fill="black"/>
<path d="M640.933 620.2C639.6 620.733 638.533 621.533 638.533 622.2C638.667 623.4 657.333 624.067 657.333 622.867C657.333 622.067 646.667 618.867 644.4 619.133C643.867 619.133 642.267 619.667 640.933 620.2Z" fill="black"/>
<path d="M831.333 163C831.333 200.733 831.467 216.2 831.6 197.4C831.867 178.467 831.867 147.533 831.6 128.6C831.467 109.8 831.333 125.267 831.333 163Z" fill="black"/>
<path d="M831.333 401.667C831.333 487.8 831.467 523.133 831.6 480.067C831.867 436.867 831.867 366.467 831.6 323.4C831.467 280.2 831.333 315.533 831.333 401.667Z" fill="black"/>
<path d="M831.2 587C831.2 599.133 831.467 604.067 831.6 597.933C831.867 591.933 831.867 582.067 831.6 575.933C831.467 569.933 831.2 574.867 831.2 587Z" fill="black"/>
<path d="M831.333 677.667C831.333 710.333 831.467 723.667 831.6 707.4C831.867 691 831.867 664.333 831.6 648.067C831.467 631.667 831.333 645 831.333 677.667Z" fill="black"/>
<path d="M831.067 773.667C831.067 777 831.333 778.333 831.6 776.6C831.867 775 831.867 772.333 831.6 770.6C831.333 769 831.067 770.333 831.067 773.667Z" fill="black"/>
<path d="M831.067 800.333C831.067 806.6 831.333 809.133 831.6 805.933C831.867 802.867 831.867 797.8 831.6 794.6C831.333 791.533 831.067 794.067 831.067 800.333Z" fill="black"/>
</svg>
