<svg width="865" height="884" viewBox="0 0 865 884" fill="none" xmlns="http://www.w3.org/2000/svg">
<rect width="865" height="884" fill="white"/>
<path d="M263.5 79.5H269H278L287.5 82L294 86L297.5 88L301 91.5L303.5 93.5L305.5 96.5L307.5 99.5L310.5 111L312 125L310.5 146.5L307.5 161L304.5 167.5L301 173.5L297 177.5L292.5 182L287.5 185.5L282 188.5L276 190H271.5H267.5L263.5 188.5L258 186.5L252.5 184L250.5 183L248.5 181L245 177.5L242.5 174.5L240.5 171.5L237.5 168.5L235.5 162.5L233 149.5L231 138V130V121.5V117.5V112.5L233 106L234.5 101.5L237.5 96.5L240.5 92.5L243.5 90L245 88.5L246.5 87L248.5 86L250.5 85L252.5 83.5L256 82L263.5 79.5Z" stroke="black"/>
<path d="M201 226.5L212 221.5L214 226.5V241.5V252C213.333 255.667 212 263.3 212 264.5C212 265.7 208 275.667 206 280.5L209.5 295L191.5 389.5L175 447.5L146.5 440L150.5 399L163 337.5L170 280.5L172 272L176.5 256L181 246L187 237L193.5 231L201 226.5Z" stroke="black"/>
<path d="M336 223.5L330.5 221.5L329.5 223.5L328 232V240V248.5C328 249.3 329 255.833 329.5 259L337.5 283L333 298L343.5 349L351 389L367 447L396.5 439.5L392 401.5L388 379.5L382 351L370 271L367 259L362.5 247.5L357 238.5L350.5 232L344 227.5L336 223.5Z" stroke="black"/>
<path d="M253.5 209L245.5 207L212.5 222L213 225.5L214 232.5V240V249L213 259.5L211 268L206 281L212 303L214 313.5H329L331 303L336.5 282.5L333.5 274L331 265.5L329 256L328 250V245V238V232.5L329 221.5L296 207L282.5 210L271.5 211L259.5 210L253.5 209Z" stroke="black"/>
<path d="M328.5 314.5H215L216 340V360V384H326.5V354V335L328.5 314.5Z" stroke="black"/>
<path d="M327 385H215.5V386.5L208 426L211 427.5L221.5 432L239.5 441L262 457L271 462.5L276 460.5L295 446.5L307 439L321.5 431L334.5 426L327 385Z" stroke="black"/>
<path d="M203 460.5L208 426.5V425.5L217 429L240 441L270.5 463V467V509V539L269.5 560.5C268.833 575.5 267.5 605.7 267.5 606.5V628L272 664L270 697L268.5 723.5L267.5 774L271 791V820.5L261 824L239 822L221 818.5L220 811.5L231.5 792L234.5 786L237.5 773L236.5 762.5L235.5 753.5L233 739L227 708.5L221 680V658.5V642V616L217.5 601.5L212 577.5L207 549L204 520.5L202.5 499V475L203 460.5Z" stroke="black"/>
<path d="M281 457L271.5 462.5V500.5L272.5 544L274 587.5L275 618.5V636.5L271.5 651.5V695.5L273.5 708L275 752L273.5 785.5L271.5 790V820.5L277 822.5H299.5L320 819L322 816.5V809.5L306.5 782.5L305.5 779.5L305 770.5L308 743L315 709.5L321.5 674.5L322.5 658V612.5L323.5 606L330 577.5L334.5 553.5L337.5 530.5L340 503V480L338.5 457L334 426L326.5 428.5L307 438.5L295 446.5L281 457Z" stroke="black"/>
<path d="M674.5 372.5H565.5V347L564 332.5L562.5 314L558 296L555.5 285V222.5L591.5 208L595.5 201.5H642.5L648.5 208L681.5 222.5L684 285L681.5 296L677.5 314L675.5 332.5L674.5 347V372.5Z" stroke="black"/>
<path d="M620.5 467.5L624.5 470.5L633.5 475L647.5 478.5L661.5 477L673.5 470.5L688 457.5L685 434L673.5 372.5H565L555.5 434L552.5 457.5L563.5 467.5L566 469.5L572 475L581 477L594.5 478.5L605 476L614 470.5L620.5 467.5ZM620.5 467.5V464.5" stroke="black"/>
<path d="M610 80.5L618 79.5H628L633 81.5L638 83L641.5 85L647.5 89L652.5 95L659 108L660 123.5L658 155.5L648.5 175.5L645.5 178L644 184L643 195.5V201H596.5V195.5V184L594 178L591 175.5L581 155.5L579.5 123.5L581 108L587 95L593 89L598 85L602.5 83L605.5 81.5L610 80.5Z" stroke="black"/>
</svg>
